<svg width="18" height="16" viewBox="0 0 18 16" fill="none" xmlns="http://www.w3.org/2000/svg">
<path d="M8.63576 0C9.23194 0 9.71523 0.447716 9.71523 1V7.00001L16.1921 7C16.7882 7 17.2715 7.44772 17.2715 8C17.2715 8.55228 16.7882 9 16.1921 9L9.71523 9.00001L9.71524 15C9.71524 15.5523 9.23194 16 8.63576 16C8.03959 16 7.55629 15.5523 7.55629 15L7.55521 9.00001L1.07947 9C0.483295 9 0 8.55228 0 8C0 7.44772 0.483295 7 1.07947 7L7.55521 7.00001L7.55628 1C7.55628 0.447716 8.03958 0 8.63576 0Z" fill="white"/>
</svg>
