<svg width="42" height="42" viewBox="0 0 42 42" fill="none" xmlns="http://www.w3.org/2000/svg">
<path d="M18.1427 9.57141H12.4284C10.8505 9.57141 9.57129 10.8506 9.57129 12.4286V18.1428C9.57129 19.7208 10.8505 21 12.4284 21H18.1427C19.7207 21 20.9999 19.7208 20.9999 18.1428V12.4286C20.9999 10.8506 19.7207 9.57141 18.1427 9.57141Z" stroke="#000001" stroke-width="3" stroke-linecap="round" stroke-linejoin="round"/>
<path d="M9.57132 2.42859H5.28561C4.52785 2.42859 3.80112 2.72961 3.2653 3.26543C2.72949 3.80124 2.42847 4.52797 2.42847 5.28573V9.57145" stroke="#000001" stroke-width="3" stroke-linecap="round" stroke-linejoin="round"/>
<path d="M32.4285 2.42859H36.7142C37.4719 2.42859 38.1987 2.72961 38.7345 3.26543C39.2703 3.80124 39.5713 4.52797 39.5713 5.28573V9.57145" stroke="#000001" stroke-width="3" stroke-linecap="round" stroke-linejoin="round"/>
<path d="M9.57132 39.5714H5.28561C4.52785 39.5714 3.80112 39.2704 3.2653 38.7346C2.72949 38.1988 2.42847 37.4721 2.42847 36.7143V32.4286" stroke="#000001" stroke-width="3" stroke-linecap="round" stroke-linejoin="round"/>
<path d="M32.4285 39.5714H36.7142C37.4719 39.5714 38.1987 39.2704 38.7345 38.7346C39.2703 38.1988 39.5713 37.4721 39.5713 36.7143V32.4286" stroke="#000001" stroke-width="3" stroke-linecap="round" stroke-linejoin="round"/>
<path d="M9.57129 28.1428V32.4285H13.857" stroke="#000001" stroke-width="3" stroke-linecap="round" stroke-linejoin="round"/>
<path d="M20.9998 32.4285V28.1428H16.7141" stroke="#000001" stroke-width="3" stroke-linecap="round" stroke-linejoin="round"/>
<path d="M32.4285 13.8571H28.1428V9.57141" stroke="#000001" stroke-width="3" stroke-linecap="round" stroke-linejoin="round"/>
<path d="M32.4285 23.8571V19.5714H28.1428" stroke="#000001" stroke-width="3" stroke-linecap="round" stroke-linejoin="round"/>
<path d="M28.1428 28.1428V32.4285H32.4285" stroke="#000001" stroke-width="3" stroke-linecap="round" stroke-linejoin="round"/>
</svg>
