<svg width="40" height="41" viewBox="0 0 40 41" fill="none" xmlns="http://www.w3.org/2000/svg">
<path d="M4.64868 24.964V37.6402C4.64868 38.0138 4.79336 38.372 5.0509 38.6362C5.30844 38.9003 5.65773 39.0487 6.02194 39.0487H33.4871C33.8513 39.0487 34.2006 38.9003 34.4582 38.6362C34.7157 38.372 34.8604 38.0138 34.8604 37.6402V24.964" stroke="#000001" stroke-width="3" stroke-linecap="round" stroke-linejoin="round"/>
<path d="M22.5012 24.964V39.0487" stroke="#000001" stroke-width="3" stroke-linecap="round" stroke-linejoin="round"/>
<path d="M4.64868 29.1895H22.5011" stroke="#000001" stroke-width="3" stroke-linecap="round" stroke-linejoin="round"/>
<path d="M1.9021 12.2878L6.02188 2.42847H33.4871L37.6069 12.2878H1.9021Z" stroke="#000001" stroke-width="3" stroke-linecap="round" stroke-linejoin="round"/>
<path d="M13.5749 12.2877V15.1047C13.5749 16.5989 12.9962 18.0319 11.9661 19.0884C10.9359 20.145 9.53873 20.7385 8.08189 20.7385H7.31286C5.85602 20.7385 4.45884 20.145 3.4287 19.0884C2.39855 18.0319 1.81982 16.5989 1.81982 15.1047V12.2877" stroke="#000001" stroke-width="3" stroke-linecap="round" stroke-linejoin="round"/>
<path d="M25.9343 12.2877V15.1047C25.9343 16.5989 25.3556 18.0319 24.3254 19.0884C23.2953 20.145 21.8981 20.7385 20.4413 20.7385H19.068C17.6111 20.7385 16.214 20.145 15.1838 19.0884C14.1537 18.0319 13.575 16.5989 13.575 15.1047V12.2877" stroke="#000001" stroke-width="3" stroke-linecap="round" stroke-linejoin="round"/>
<path d="M37.607 12.2877V15.1047C37.607 16.5989 37.0283 18.0319 35.9982 19.0884C34.968 20.145 33.5708 20.7385 32.114 20.7385H31.4274C29.9705 20.7385 28.5733 20.145 27.5432 19.0884C26.5131 18.0319 25.9343 16.5989 25.9343 15.1047V12.2877" stroke="#000001" stroke-width="3" stroke-linecap="round" stroke-linejoin="round"/>
</svg>
