<svg width="42" height="39" viewBox="0 0 42 39" fill="none" xmlns="http://www.w3.org/2000/svg">
<path d="M15.2855 15.1429C18.8359 15.1429 21.7141 12.2647 21.7141 8.71434C21.7141 5.16394 18.8359 2.28577 15.2855 2.28577C11.7351 2.28577 8.85693 5.16394 8.85693 8.71434C8.85693 12.2647 11.7351 15.1429 15.2855 15.1429Z" stroke="#000001" stroke-width="3" stroke-linecap="round" stroke-linejoin="round"/>
<path d="M28.1428 36.5715H2.42847V33.7143C2.42847 30.3044 3.78305 27.0341 6.19424 24.6229C8.60542 22.2118 11.8757 20.8572 15.2856 20.8572C18.6955 20.8572 21.9658 22.2118 24.377 24.6229C26.7882 27.0341 28.1428 30.3044 28.1428 33.7143V36.5715Z" stroke="#000001" stroke-width="3" stroke-linecap="round" stroke-linejoin="round"/>
<path d="M26.7141 2.28577C28.4191 2.28577 30.0542 2.96306 31.2598 4.16865C32.4654 5.37424 33.1427 7.00937 33.1427 8.71434C33.1427 10.4193 32.4654 12.0544 31.2598 13.26C30.0542 14.4656 28.4191 15.1429 26.7141 15.1429" stroke="#000001" stroke-width="3" stroke-linecap="round" stroke-linejoin="round"/>
<path d="M31.2856 21.4C33.7195 22.3259 35.8148 23.9689 37.2943 26.1117C38.7739 28.2545 39.5679 30.7961 39.5714 33.4V36.5715H35.2856" stroke="#000001" stroke-width="3" stroke-linecap="round" stroke-linejoin="round"/>
</svg>
